<svg width="32" height="32" viewBox="0 0 32 32" fill="none" xmlns="http://www.w3.org/2000/svg">
  <rect width="32" height="32" fill="white"/>
  <path
    fillRule="evenodd"
    clipRule="evenodd"
    d="M12 4C7.58172 4 4 7.58172 4 12C4 16.4183 7.58172 20 12 20C16.4183 20 20 16.4183 20 12C20 7.58172 16.4183 4 12 4ZM0 12C0 5.37258 5.37258 0 12 0C18.6274 0 24 5.37258 24 12C24 14.5917 23.1784 16.9915 21.7814 18.9531L31.4142 28.5858L28.5858 31.4142L18.9531 21.7814C16.9915 23.1784 14.5917 24 12 24C5.37258 24 0 18.6274 0 12Z"
    fill="black"/>
</svg>